<svg xmlns="http://www.w3.org/2000/svg" viewBox="0 0 64 64" role="img" aria-label="BridgeHours favicon">
  <defs>
    <linearGradient id="bg" x1="0%" y1="0%" x2="100%" y2="100%">
      <stop offset="0%" stop-color="#d7643b"/>
      <stop offset="100%" stop-color="#f0a17d"/>
    </linearGradient>
  </defs>
  <rect width="64" height="64" rx="18" fill="url(#bg)"/>
  <path d="M21 18h10c8 0 13 4 13 11 0 4-2 7-6 9 5 1 8 5 8 10 0 8-6 12-15 12H21z" fill="#fff" opacity=".96"/>
  <path d="M28 25v10h5c3 0 5-2 5-5s-2-5-5-5zm0 16v10h6c4 0 6-2 6-5s-2-5-6-5z" fill="#d7643b"/>
</svg>
